<svg width="31" height="32" viewBox="0 0 31 32" fill="none" xmlns="http://www.w3.org/2000/svg">
<g id="Skype/Original/True">
<rect x="0.662109" y="0.825195" width="30.2623" height="30.2623" rx="15.1311" fill="#0078D7"/>
<path id="Shape" d="M15.8321 21.8062C12.6031 21.8062 11.1277 20.1612 11.1277 18.9547C11.1273 18.6669 11.2454 18.3916 11.4543 18.1936C11.6632 17.9956 11.9444 17.8924 12.2318 17.9083C13.6143 17.9083 13.2527 19.982 15.8321 19.982C17.1506 19.982 17.9251 19.1884 17.9251 18.4427C17.9251 17.9947 17.6691 17.4826 16.7986 17.2778L13.9184 16.5513C11.6046 15.9625 11.2013 14.676 11.2013 13.4823C11.2013 11.0053 13.4671 10.1092 15.6241 10.1092C17.6115 10.1092 19.9733 11.2069 19.9733 12.6918C19.9733 13.3319 19.4388 13.6743 18.818 13.6743C17.6371 13.6743 17.8355 12.0166 15.4609 12.0166C14.28 12.0166 13.6591 12.5702 13.6591 13.3447C13.6591 14.1191 14.5776 14.3816 15.3841 14.5576L17.5091 15.0376C19.8388 15.5625 20.4597 16.929 20.4597 18.2379C20.4597 20.2508 18.9012 21.8062 15.8289 21.8062H15.8321ZM24.748 17.5466C24.8403 17.0183 24.8863 16.4829 24.8857 15.9465C24.897 13.2522 23.7131 10.6916 21.6533 8.95489C19.5934 7.21817 16.8696 6.4841 14.216 6.95055C13.4004 6.48095 12.4753 6.23479 11.5342 6.23689C9.60236 6.24869 7.82169 7.28404 6.8558 8.95708C5.8899 10.6301 5.88365 12.6899 6.83938 14.3688C6.30609 17.299 7.24026 20.3048 9.34055 22.4166C11.4409 24.5284 14.4415 25.4789 17.3746 24.9616C18.1893 25.4308 19.1132 25.677 20.0533 25.6753C21.9841 25.6629 23.7637 24.6279 24.7294 22.9559C25.695 21.2839 25.7022 19.2253 24.748 17.5466Z" fill="white"/>
</g>
</svg>
