<svg width="31" height="32" viewBox="0 0 31 32" fill="none" xmlns="http://www.w3.org/2000/svg">
<g id="Telegram/Original/True">
<rect x="0.638672" y="0.825195" width="30.2623" height="30.2623" rx="15.1311" fill="url(#paint0_linear_476_3899)"/>
<path id="Vector" fill-rule="evenodd" clip-rule="evenodd" d="M7.48902 15.7964C11.9001 13.8746 14.8414 12.6076 16.3132 11.9954C20.5153 10.2476 21.3884 9.94403 21.9575 9.93401C22.0827 9.9318 22.3626 9.96282 22.5439 10.1099C22.6969 10.2341 22.739 10.4019 22.7592 10.5197C22.7794 10.6375 22.8045 10.9057 22.7845 11.1154C22.5568 13.5079 21.5715 19.3141 21.0702 21.9939C20.8581 23.1278 20.4405 23.508 20.0361 23.5452C19.1574 23.626 18.4902 22.9645 17.6391 22.4066C16.3074 21.5336 15.5551 20.9902 14.2624 20.1383C12.7685 19.1539 13.7369 18.6128 14.5883 17.7285C14.8111 17.4971 18.6826 13.9756 18.7576 13.6562C18.7669 13.6162 18.7756 13.4673 18.6872 13.3887C18.5987 13.31 18.4681 13.3369 18.3739 13.3583C18.2403 13.3886 16.1129 14.7948 11.9915 17.5768C11.3876 17.9915 10.8406 18.1935 10.3506 18.1829C9.81031 18.1713 8.77106 17.8775 7.99849 17.6263C7.0509 17.3183 6.29778 17.1555 6.36336 16.6323C6.39751 16.3599 6.77274 16.0812 7.48902 15.7964Z" fill="white"/>
</g>
<defs>
<linearGradient id="paint0_linear_476_3899" x1="15.7698" y1="0.825195" x2="15.7698" y2="30.863" gradientUnits="userSpaceOnUse">
<stop stop-color="#2AABEE"/>
<stop offset="1" stop-color="#229ED9"/>
</linearGradient>
</defs>
</svg>
