<svg width="31" height="32" viewBox="0 0 31 32" fill="none" xmlns="http://www.w3.org/2000/svg">
<rect x="0.671875" y="0.825195" width="30.2623" height="30.2623" rx="15.1311" fill="black"/>
<path d="M20.0221 13.0114C21.3843 13.9886 23.0531 14.5636 24.8555 14.5636V11.0829C24.5144 11.083 24.1742 11.0473 23.8404 10.9763V13.7161C22.0382 13.7161 20.3696 13.1411 19.007 12.1639V19.267C19.007 22.8204 16.1367 25.7007 12.5962 25.7007C11.2752 25.7007 10.0473 25.2999 9.02734 24.6125C10.1915 25.8071 11.815 26.5481 13.6111 26.5481C17.1518 26.5481 20.0222 23.6678 20.0222 20.1143V13.0114H20.0221ZM21.2742 9.49975C20.5781 8.73647 20.121 7.75006 20.0221 6.65955V6.21185H19.0602C19.3023 7.5979 20.1281 8.78205 21.2742 9.49975ZM11.2667 21.8858C10.8777 21.374 10.6675 20.7479 10.6685 20.1041C10.6685 18.479 11.9813 17.1613 13.6011 17.1613C13.9029 17.1612 14.203 17.2076 14.4906 17.2992V13.7407C14.1545 13.6944 13.8152 13.6748 13.476 13.682V16.4518C13.1881 16.3602 12.8879 16.3136 12.586 16.3139C10.9663 16.3139 9.65351 17.6315 9.65351 19.2569C9.65351 20.4061 10.3097 21.4011 11.2667 21.8858Z" fill="#FF004F"/>
<path d="M19.008 12.1639C20.3706 13.141 22.0392 13.716 23.8414 13.716V10.9762C22.8354 10.7612 21.9448 10.2336 21.2752 9.49975C20.129 8.78198 19.3033 7.59782 19.0611 6.21185H16.5345V20.1142C16.5287 21.7349 15.2181 23.0472 13.6019 23.0472C12.6495 23.0472 11.8033 22.5916 11.2675 21.8858C10.3106 21.4011 9.65435 20.406 9.65435 19.2569C9.65435 17.6317 10.9671 16.314 12.5868 16.314C12.8972 16.314 13.1963 16.3625 13.4769 16.4518V13.6821C9.99856 13.7542 7.20117 16.6064 7.20117 20.1142C7.20117 21.8653 7.89779 23.4527 9.0284 24.6126C10.0484 25.2999 11.2762 25.7008 12.5973 25.7008C16.1378 25.7008 19.0081 22.8203 19.0081 19.267V12.1639H19.008Z" fill="white"/>
<path d="M23.8408 10.9763V10.2355C22.9336 10.2369 22.0443 9.98193 21.2746 9.49978C21.9559 10.2484 22.8531 10.7646 23.8408 10.9763ZM19.0605 6.21195C19.0374 6.07949 19.0197 5.94616 19.0073 5.81232V5.36462H15.5187V19.2671C15.5131 20.8876 14.2026 22.1999 12.5862 22.1999C12.1117 22.1999 11.6636 22.0869 11.2668 21.886C11.8027 22.5917 12.6488 23.0472 13.6013 23.0472C15.2173 23.0472 16.5282 21.7351 16.5338 20.1143V6.21195H19.0605ZM13.4764 13.6822V12.8935C13.1848 12.8535 12.891 12.8335 12.5967 12.8336C9.05585 12.8336 6.18555 15.714 6.18555 19.2671C6.18555 21.4946 7.31363 23.4578 9.02783 24.6126C7.89722 23.4528 7.2006 21.8653 7.2006 20.1143C7.2006 16.6065 9.99792 13.7543 13.4764 13.6822Z" fill="#00F2EA"/>
</svg>
