<svg width="31" height="32" viewBox="0 0 31 32" fill="none" xmlns="http://www.w3.org/2000/svg">
<rect x="0.650391" y="0.825195" width="30.2623" height="30.2623" rx="15.1311" fill="url(#paint0_linear_476_3898)"/>
<path d="M6.60352 24.7596L7.90093 20.0483C7.09881 18.6654 6.67803 17.0994 6.68241 15.4984C6.68241 10.4817 10.785 6.40295 15.8213 6.40295C18.2671 6.40295 20.5638 7.34958 22.2864 9.06833C24.0134 10.7871 24.9645 13.0729 24.9601 15.5028C24.9601 20.5194 20.8575 24.5982 15.8169 24.5982H15.8125C14.2828 24.5982 12.7794 24.2143 11.4425 23.4902L6.60352 24.7596ZM11.6748 21.8456L11.951 22.0113C13.1169 22.7006 14.4537 23.0627 15.8169 23.067H15.8213C20.0072 23.067 23.4173 19.6775 23.4173 15.5071C23.4173 13.4874 22.6283 11.5898 21.195 10.1589C19.7617 8.72807 17.8507 7.94285 15.8213 7.94285C11.6354 7.93849 8.22528 11.328 8.22528 15.4984C8.22528 16.9249 8.62415 18.3165 9.38682 19.5205L9.56652 19.8084L8.79947 22.5959L11.6748 21.8456Z" fill="white"/>
<path d="M6.92383 24.4409L8.17741 19.891C7.40159 18.5605 6.99396 17.0468 6.99396 15.5025C6.99834 10.6604 10.9563 6.72119 15.8216 6.72119C18.1841 6.72119 20.3976 7.63728 22.0632 9.29496C23.7288 10.9526 24.6449 13.16 24.6449 15.5069C24.6449 20.3491 20.6825 24.2883 15.8216 24.2883H15.8172C14.3401 24.2883 12.8893 23.9175 11.6006 23.2195L6.92383 24.4409Z" fill="url(#paint1_linear_476_3898)"/>
<path d="M6.60352 24.7596L7.90093 20.0483C7.09881 18.6654 6.67803 17.0994 6.68241 15.4984C6.68241 10.4817 10.785 6.40295 15.8213 6.40295C18.2671 6.40295 20.5638 7.34958 22.2864 9.06833C24.0134 10.7871 24.9645 13.0729 24.9601 15.5028C24.9601 20.5194 20.8575 24.5982 15.8169 24.5982H15.8125C14.2828 24.5982 12.7794 24.2143 11.4425 23.4902L6.60352 24.7596ZM11.6748 21.8456L11.951 22.0113C13.1169 22.7006 14.4537 23.0627 15.8169 23.067H15.8213C20.0072 23.067 23.4173 19.6775 23.4173 15.5071C23.4173 13.4874 22.6283 11.5898 21.195 10.1589C19.7617 8.72807 17.8507 7.94285 15.8213 7.94285C11.6354 7.93849 8.22528 11.328 8.22528 15.4984C8.22528 16.9249 8.62415 18.3165 9.38682 19.5205L9.56652 19.8084L8.79947 22.5959L11.6748 21.8456Z" fill="url(#paint2_linear_476_3898)"/>
<path fill-rule="evenodd" clip-rule="evenodd" d="M13.5378 11.6943C13.3669 11.3148 13.1872 11.3061 13.025 11.3017C12.8935 11.2974 12.7401 11.2974 12.5867 11.2974C12.4333 11.2974 12.1878 11.3541 11.9774 11.5809C11.767 11.8078 11.1797 12.3574 11.1797 13.4785C11.1797 14.5953 11.9993 15.6771 12.1133 15.8298C12.2273 15.9825 13.6956 18.3512 16.0143 19.263C17.9429 20.022 18.3374 19.8693 18.7538 19.8301C19.1702 19.7908 20.1038 19.2804 20.2966 18.7482C20.4851 18.216 20.4851 17.7623 20.4281 17.6664C20.3712 17.5704 20.2177 17.5137 19.9898 17.4003C19.7619 17.2868 18.6398 16.7372 18.4294 16.6587C18.219 16.5845 18.0656 16.5452 17.9166 16.7721C17.7632 16.9989 17.3249 17.5093 17.1934 17.662C17.0619 17.8147 16.926 17.8321 16.6981 17.7187C16.4701 17.6053 15.7338 17.3654 14.8615 16.5889C14.1821 15.9869 13.7219 15.2409 13.5904 15.0141C13.4589 14.7872 13.5773 14.6651 13.6912 14.5517C13.792 14.4513 13.9192 14.2856 14.0331 14.1547C14.1471 14.0238 14.1865 13.9278 14.261 13.7752C14.3356 13.6225 14.3005 13.4916 14.2435 13.3782C14.1865 13.2691 13.7394 12.1437 13.5378 11.6943Z" fill="white"/>
<defs>
<linearGradient id="paint0_linear_476_3898" x1="15.7808" y1="31.086" x2="15.7808" y2="0.824137" gradientUnits="userSpaceOnUse">
<stop stop-color="#20B038"/>
<stop offset="1" stop-color="#60D66A"/>
</linearGradient>
<linearGradient id="paint1_linear_476_3898" x1="15.7839" y1="24.4401" x2="15.7839" y2="6.72057" gradientUnits="userSpaceOnUse">
<stop stop-color="#20B038"/>
<stop offset="1" stop-color="#60D66A"/>
</linearGradient>
<linearGradient id="paint2_linear_476_3898" x1="15.7836" y1="24.7579" x2="15.7836" y2="6.40295" gradientUnits="userSpaceOnUse">
<stop stop-color="#F9F9F9"/>
<stop offset="1" stop-color="white"/>
</linearGradient>
</defs>
</svg>
