<svg width="14" height="14" viewBox="0 0 14 14" fill="none" xmlns="http://www.w3.org/2000/svg">
<path d="M6.99967 0.333496C3.32634 0.333496 0.333008 3.32683 0.333008 7.00016C0.333008 10.6735 3.32634 13.6668 6.99967 13.6668C10.673 13.6668 13.6663 10.6735 13.6663 7.00016C13.6663 3.32683 10.673 0.333496 6.99967 0.333496ZM10.1863 5.46683L6.40634 9.24683C6.31301 9.34016 6.18634 9.3935 6.05301 9.3935C5.91967 9.3935 5.79301 9.34016 5.69967 9.24683L3.81301 7.36016C3.61967 7.16683 3.61967 6.84683 3.81301 6.6535C4.00634 6.46016 4.32634 6.46016 4.51967 6.6535L6.05301 8.18683L9.47967 4.76016C9.67301 4.56683 9.99301 4.56683 10.1863 4.76016C10.3797 4.9535 10.3797 5.26683 10.1863 5.46683Z" fill="black"/>
</svg>
