<svg width="26" height="26" viewBox="0 0 26 26" fill="none" xmlns="http://www.w3.org/2000/svg">
<path d="M19.2967 11.0906C19.2967 11.0906 17.4685 9.58752 16.4935 8.12502C16.1279 7.5969 14.9498 7.67815 14.5435 8.69377L8.20603 11.1313L4.02166 8.8969C3.37166 8.49065 2.51853 8.77502 2.15291 9.5469C1.78728 10.2781 1.99041 11.2125 2.68103 11.6188L3.33103 11.9844C2.76228 11.9031 2.15291 12.1875 1.86853 12.7563C1.50291 13.4875 1.70603 14.4219 2.39666 14.8281L3.85916 15.6813C3.20916 15.275 2.35603 15.5594 1.99041 16.3313C1.62478 17.0625 1.82791 17.9969 2.51853 18.4031C2.51853 18.4031 9.87166 22.9531 12.3904 24.2938C14.381 25.3906 18.3217 25.9188 20.7998 22.9125C21.6123 21.8563 19.2967 11.0906 19.2967 11.0906Z" fill="#AB794E"/>
<path d="M22.3433 11.0905C21.0433 10.1968 20.1496 9.01867 19.4996 7.23117C19.2558 6.6218 18.3621 6.49992 17.834 7.51555C17.0621 8.97805 17.7933 10.1562 18.1996 10.6843L18.4027 10.928C18.4027 10.928 18.5246 11.3749 18.7277 11.903C17.6308 11.6593 16.4121 12.2687 15.559 13.4062C14.6652 14.5843 12.5527 16.6155 11.659 17.7937C10.5621 19.2155 10.8465 21.2468 12.0652 22.1405C12.0652 22.1405 18.4433 26.8124 22.6683 21.0843C25.9996 16.6155 23.6433 11.9843 22.3433 11.0905Z" fill="#D6A57C"/>
<path d="M20.1901 12.7969C20.8401 13.2844 21.0026 14.2187 20.5151 14.95C20.0682 15.6812 19.1338 15.8844 18.4838 15.3969L8.36822 8.125C7.71822 7.6375 7.55572 6.70312 8.04322 5.97187C8.49009 5.24062 9.42447 5.0375 10.0745 5.525L20.1901 12.7969Z" fill="#D6A57C"/>
<path d="M14.9495 11.9845L8.49017 7.3126C8.12455 7.06885 7.8808 6.6626 8.00267 6.05322C7.5558 6.86572 7.84017 7.67822 8.3683 8.08447L14.8277 12.7563C15.4777 13.2438 15.5995 12.472 14.9495 11.9845Z" fill="#B58360"/>
<path d="M16.8991 14.2188C17.5491 14.7063 17.7116 15.6407 17.2241 16.372C16.7772 17.1032 15.8428 17.3063 15.1928 16.8188L5.0772 9.50634C4.4272 9.01884 4.2647 8.08447 4.7522 7.35322C5.19908 6.62197 6.13345 6.41884 6.78345 6.90634L16.8991 14.2188Z" fill="#D6A57C"/>
<path d="M12.9991 14.3813L5.19915 8.73447C4.83352 8.49072 4.58977 8.00322 4.71165 7.4751C4.26477 8.2876 4.50852 9.18135 5.07727 9.5876L12.9179 15.1532C13.5273 15.6407 13.6491 14.8282 12.9991 14.3813Z" fill="#B58360"/>
<path d="M16.2506 17.4688C16.9006 17.9563 17.0631 18.8907 16.5756 19.622C16.1288 20.3532 15.1944 20.5563 14.5444 20.0688L4.42877 12.7563C3.77877 12.2688 3.61627 11.3345 4.10377 10.6032C4.55064 9.87197 5.48502 9.66884 6.13502 10.1563L16.2506 17.4688Z" fill="#D6A57C"/>
<path d="M11.4562 16.9813L4.5499 12.025C4.18428 11.7813 3.94053 11.2125 4.10303 10.6438C3.5749 11.4157 3.77803 12.4313 4.34678 12.8375L11.3343 17.7532C11.9843 18.2407 12.1062 17.4688 11.4562 16.9813Z" fill="#B58360"/>
<path d="M15.9659 21.125C16.6159 21.6125 11.9846 22.1 11.3346 21.6125L4.18463 16.4531C3.53463 15.9656 3.37213 15.0312 3.85963 14.3C4.3065 13.5687 5.24088 13.3656 5.89088 13.8531L15.9659 21.125Z" fill="#D6A57C"/>
<path d="M15.3555 0.8125L16.5742 5.76875L18.9711 1.17813L15.3555 0.8125Z" fill="#42ADE2"/>
<path d="M21.3672 2.2749L19.5391 6.37803L23.8047 5.28115L21.3672 2.2749Z" fill="#42ADE2"/>
<path d="M12.268 1.42188L13.4055 5.89062L9.66797 3.49375L12.268 1.42188Z" fill="#42ADE2"/>
</svg>
