<svg width="20" height="19" viewBox="0 0 20 19" fill="none" xmlns="http://www.w3.org/2000/svg">
<path d="M9.87277 0C4.71402 0 0.53125 4.18277 0.53125 9.34152C0.53125 10.8055 0.879814 12.1997 1.50723 13.4546C1.57694 13.5243 1.57694 13.6637 1.57694 13.7334L1.08895 15.6157C0.879814 16.3128 1.08895 17.0796 1.64665 17.5676C2.13464 18.0556 2.90149 18.2648 3.59861 18.1253L5.41115 17.5676C5.48086 17.5676 5.62029 17.5676 5.69 17.6373C7.01454 18.2648 8.4088 18.6133 9.80305 18.6133C14.9618 18.6133 19.1446 14.4306 19.1446 9.2718C19.1446 4.11306 14.9618 0 9.87277 0ZM9.87277 16.7311C8.68765 16.7311 7.57224 16.4522 6.59626 15.9642C6.2477 15.8248 5.89914 15.6854 5.55057 15.6854C5.34143 15.6854 5.20201 15.6854 4.99287 15.7551L3.11062 16.2431C3.11062 16.2431 3.04091 16.2431 2.9712 16.1734C2.90149 16.1037 2.90149 16.0339 2.90149 16.0339L3.38947 14.1517C3.5289 13.594 3.45919 13.0363 3.18034 12.5483C2.69235 11.5026 2.4135 10.3872 2.4135 9.2718C2.4135 5.15875 5.75971 1.88225 9.80305 1.88225C13.8464 1.88225 17.2623 5.22846 17.2623 9.34152C17.2623 13.4546 13.9161 16.7311 9.87277 16.7311Z" fill="black"/>
<path d="M13.1489 7.1106H6.45645C5.96846 7.1106 5.48047 7.52887 5.48047 8.08658C5.48047 8.64428 5.89875 9.06255 6.45645 9.06255H13.1489C13.6369 9.06255 14.1249 8.64428 14.1249 8.08658C14.1249 7.52887 13.7066 7.1106 13.1489 7.1106Z" fill="black"/>
<path d="M11.0575 10.0386H6.45645C5.96846 10.0386 5.48047 10.4569 5.48047 11.0146C5.48047 11.5723 5.89875 11.9905 6.45645 11.9905H11.0575C11.5455 11.9905 12.0335 11.5723 12.0335 11.0146C12.0335 10.4569 11.6152 10.0386 11.0575 10.0386Z" fill="black"/>
</svg>
