<svg width="14" height="13" viewBox="0 0 14 13" fill="none" xmlns="http://www.w3.org/2000/svg">
<path fill-rule="evenodd" clip-rule="evenodd" d="M10.5995 0.602583L12.7056 2.70867C13.2943 3.2696 13.3184 4.20111 12.7594 4.79169L5.84159 11.7095C5.59104 11.9579 5.26265 12.1126 4.91153 12.1476L1.70629 12.4397H1.63711C1.4328 12.4409 1.23643 12.3607 1.09138 12.2168C0.92922 12.0552 0.847505 11.8298 0.868469 11.6019L1.19899 8.39663C1.23396 8.04551 1.38866 7.71712 1.63711 7.46657L8.5549 0.548778C9.15123 0.0449714 10.0305 0.0681096 10.5995 0.602583ZM8.03209 3.21594L10.0921 5.27591L11.6293 3.77705L9.53095 1.67866L8.03209 3.21594Z" fill="#334253"/>
</svg>
