<svg width="26" height="24" viewBox="0 0 26 24" fill="none" xmlns="http://www.w3.org/2000/svg">
<path d="M11.9089 3.3201L11.9089 3.32009C11.321 2.66946 10.6187 2.14882 9.84011 1.79197C9.06125 1.435 8.22337 1.25 7.37502 1.25C6.52669 1.25 5.6888 1.435 4.90994 1.79197M11.9089 3.3201L4.90994 1.79197M11.9089 3.3201C12.4928 3.96619 13.5072 3.96619 14.0911 3.3201C15.2795 2.00517 16.9085 1.25001 18.625 1.25001C20.3415 1.25001 21.9705 2.00517 23.1589 3.3201L23.5299 2.98485L23.1589 3.32011C24.3449 4.6324 25 6.39744 25 8.224C25 10.0506 24.3449 11.8157 23.1589 13.1279L23.1589 13.1279L15.4112 21.7006L15.7821 22.0359L15.4112 21.7006C14.1208 23.1285 11.8792 23.1285 10.5888 21.7006L10.2179 22.0359L10.5888 21.7006L2.84111 13.1279L2.84109 13.1278C2.25323 12.4775 1.7904 11.7092 1.47579 10.8688C1.16118 10.0284 1 9.12989 1 8.224C1 7.31812 1.16118 6.41963 1.47579 5.57923L1.47579 5.57923C1.7904 4.7388 2.25323 3.97057 2.84111 3.32011L2.84112 3.3201C3.42913 2.66946 4.13136 2.14882 4.90994 1.79197M11.9089 3.3201L4.70161 1.33744L4.90994 1.79197M12.2799 2.98485C12.6652 3.41127 13.3347 3.41127 13.7201 2.98485H12.2799Z" fill="#EA2F2F" stroke="#B90A0A"/>
</svg>
