<svg width="20" height="21" viewBox="0 0 20 21" fill="none" xmlns="http://www.w3.org/2000/svg">
<path d="M6.55087 7.61154L6.55086 7.61156C6.44452 8.32987 5.77602 8.82612 5.05758 8.71974L6.55087 7.61154ZM6.55087 7.61154C6.55623 7.57529 6.61207 7.4839 6.75014 7.4839C6.8882 7.4839 6.94404 7.57529 6.94941 7.61154L6.94941 7.61156C7.05575 8.32987 7.72426 8.82614 8.4427 8.71974C9.16104 8.61339 9.65724 7.9449 9.55086 7.22649C9.34651 5.84557 8.13545 4.85409 6.75014 4.85409C5.36481 4.85409 4.1538 5.84558 3.94939 7.22647L3.94939 7.22647M6.55087 7.61154L3.94939 7.22647M3.94939 7.22647C3.84306 7.94485 4.33921 8.61338 5.05755 8.71974L3.94939 7.22647ZM13.0509 7.61162C12.9445 8.32997 12.2759 8.82611 11.5576 8.71975L13.0509 7.61162ZM13.0509 7.61162C13.0563 7.57527 13.1122 7.4839 13.2502 7.4839C13.3882 7.4839 13.4441 7.57527 13.4495 7.61162C13.5558 8.32997 14.2244 8.82611 14.9427 8.71975L13.0509 7.61162ZM4.50002 10.3541H3.88141L3.93745 10.9702C4.22214 14.1003 6.51924 16.734 10.0001 16.734C13.4809 16.734 15.7779 14.1003 16.0627 10.9702L16.1187 10.3541H15.5001H4.50002ZM0.564899 10.169C0.564899 4.95812 4.78916 0.733844 10.0001 0.733844C15.2109 0.733844 19.4352 4.95812 19.4352 10.169C19.4352 15.3799 15.2109 19.6042 10.0001 19.6042C4.78916 19.6042 0.564899 15.3799 0.564899 10.169ZM10.4494 7.22649C10.3431 7.9449 10.8393 8.61338 11.5576 8.71974H14.9427C15.6611 8.61338 16.1573 7.94491 16.0509 7.22649C15.8465 5.84557 14.6355 4.85409 13.2502 4.85409C11.8649 4.85409 10.6538 5.84557 10.4494 7.22649Z" fill="#F2C200" stroke="#D9AE00" stroke-width="1.1298"/>
</svg>
