<svg width="18" height="19" viewBox="0 0 18 19" fill="none" xmlns="http://www.w3.org/2000/svg">
<g clip-path="url(#clip0_1258_1915)">
<path d="M13.5162 11.1078C12.321 11.1078 11.2005 11.6332 10.5281 12.6089L7.31595 10.7326C7.54006 10.2823 7.61476 9.75688 7.61476 9.30656C7.61476 9.00634 7.61476 8.78118 7.54006 8.48097L10.9764 6.52957C11.6487 7.20505 12.6198 7.58032 13.5909 7.58032C15.6826 7.58032 17.3261 5.85409 17.3261 3.82764C17.3261 1.80119 15.6079 0.0749512 13.5909 0.0749512C11.574 0.0749512 9.85583 1.80119 9.85583 3.82764C9.85583 4.12785 9.85583 4.35301 9.93053 4.65323L6.49423 6.60462C5.7472 5.92914 4.85077 5.55387 3.87965 5.55387C1.78798 5.55387 0.144531 7.28011 0.144531 9.30656C0.144531 11.333 1.86268 13.0592 3.87965 13.0592C4.62667 13.0592 5.29899 12.8341 5.97131 12.3838L9.85583 14.5603C9.85583 14.6354 9.85583 14.7104 9.85583 14.7855C9.85583 16.887 11.574 18.5382 13.5909 18.5382C15.6079 18.5382 17.3261 16.8119 17.3261 14.7855C17.3261 12.759 15.6079 11.1078 13.5162 11.1078ZM15.3091 14.8605C15.3091 15.8362 14.4874 16.6618 13.5162 16.6618C12.5451 16.6618 11.7234 15.8362 11.7234 14.8605C11.7234 13.8848 12.5451 13.0592 13.5162 13.0592C14.4874 13.0592 15.3091 13.8848 15.3091 14.8605ZM5.6725 9.30656C5.6725 10.2823 4.85077 11.1078 3.87965 11.1078C2.90852 11.1078 2.08679 10.2823 2.08679 9.30656C2.08679 8.33086 2.90852 7.50527 3.87965 7.50527C4.85077 7.50527 5.6725 8.33086 5.6725 9.30656ZM11.7981 3.75258C11.7981 2.77688 12.6198 1.95129 13.5909 1.95129C14.5621 1.95129 15.3838 2.77688 15.3838 3.75258C15.3838 4.72828 14.5621 5.55387 13.5909 5.55387C12.5451 5.55387 11.7981 4.72828 11.7981 3.75258Z" fill="black"/>
</g>
<defs>
<clipPath id="clip0_1258_1915">
<rect width="17.1815" height="18.6133" fill="white" transform="translate(0.144531)"/>
</clipPath>
</defs>
</svg>
