<svg width="19" height="19" viewBox="0 0 19 19" fill="none" xmlns="http://www.w3.org/2000/svg">
<path d="M14.56 18.7501H0.994338C0.497169 18.7501 0 18.3287 0 17.8371V7.72458C0 7.233 0.426145 6.81164 0.994338 6.81164H4.61657L9.58826 1.0531C10.2985 0.210384 11.5059 -0.140746 12.5713 0.140158C13.5656 0.350837 14.3469 1.0531 14.702 1.96604C15.0571 2.80875 14.9151 3.79192 14.4179 4.63463L12.9264 6.81164H15.7674C16.6907 6.81164 17.543 7.233 18.1112 7.86503C18.6794 8.56729 18.8924 9.48023 18.7504 10.3229L17.543 16.3624C17.1878 17.7669 15.9804 18.7501 14.56 18.7501ZM5.96603 16.854H14.56C15.0571 16.854 15.4833 16.5028 15.6253 16.0113L16.8327 9.97182C16.9038 9.69091 16.8327 9.33978 16.6197 9.05888C16.4066 8.77797 16.1225 8.63752 15.7674 8.63752H11.1508C10.7957 8.63752 10.4406 8.42684 10.2985 8.14594C10.1565 7.86503 10.1565 7.44368 10.3695 7.16277L12.7844 3.58124C12.9974 3.30033 12.9974 2.9492 12.9264 2.59807C12.7844 2.24694 12.5003 2.03626 12.2162 1.96604C11.79 1.82559 11.3639 1.96604 11.0798 2.31717L6.03705 8.14594V16.854H5.96603ZM1.91765 16.854H4.04838V8.70775H1.91765V16.854Z" fill="black"/>
</svg>
